<svg id="Capa_1" enable-background="new 0 0 512 512" height="512" viewBox="0 0 512 512" width="512" xmlns="http://www.w3.org/2000/svg"><g><g><path d="m468.518 259.763c-40.514-24.056-122.947 8.666-165.28 80.024-28.556 48.135-10.349 106.353 37.765 134.921 48.114 28.569 107.916 16.671 136.472-31.465 42.333-71.357 31.557-159.424-8.957-183.48z" fill="#f1cd88"/><path d="m468.518 259.763c-4.782-2.839-10.153-4.878-15.968-6.165 30.011 33.055 34.42 109.829-3.27 173.36-25.488 42.964-75.868 57.055-120.612 39.274 3.859 3.049 7.972 5.886 12.335 8.477 48.114 28.569 107.916 16.671 136.472-31.465 42.333-71.358 31.557-159.425-8.957-183.481z" fill="#ebb34c"/><path d="m396.222 259.988 106.458 61.49c-4.365-28.336-16.408-51.172-34.162-61.715-18.146-10.774-44.701-10.151-72.296.225z" fill="#e27c48"/><path d="m492.165 286.923c-6.746-13.552-15.278-22.19-23.647-27.16-4.943-2.935-10.379-4.928-15.968-6.165 11.074 12.197 18.656 30.351 21.93 51.591l28.2 16.288c-1.82-11.813-5.162-23.808-10.515-34.554z" fill="#dd552d"/><path d="m290.918 403.796c4.741 28.392 22.492 54.528 50.085 70.912 28.39 16.857 60.848 19.62 88.556 9.168z" fill="#e27c48"/><path d="m328.668 466.232c3.789 2.994 8.096 5.959 12.335 8.477.018.01.036.021.054.031 10.213 6.057 21.45 10.537 33.025 13.008.172.037.343.069.515.105 19.099 3.971 38.071 2.396 54.962-3.977l-28.213-16.296c-22.659 8.544-48.489 8.265-72.678-1.348z" fill="#dd552d"/><path d="m494.203 406.876-9.227-29.999c-1.226-3.985-5.319-6.349-9.382-5.419l-31.632 7.245c-4.063.93-8.156-1.433-9.382-5.419l-9.545-31.029c-1.226-3.985-5.319-6.349-9.382-5.419l-31.632 7.245c-4.063.93-8.155-1.433-9.382-5.419l-9.545-31.029c-1.226-3.985-5.319-6.349-9.382-5.419l-29.834 6.833c-4.325 4.802-8.467 9.883-12.384 15.229.381.595.691 1.246.909 1.952l9.545 31.028c1.226 3.986 5.318 6.35 9.382 5.419l31.632-7.244c4.063-.93 8.155 1.433 9.382 5.419l9.545 31.028c1.226 3.986 5.318 6.35 9.382 5.419l31.632-7.244c4.063-.93 8.155 1.433 9.382 5.419l9.545 31.028c1.226 3.986 5.318 6.35 9.382 5.419l31.632-7.244c.802-.184 1.604-.235 2.386-.174 2.641-5.829 4.961-11.715 6.973-17.625z" fill="#e27c48"/><path d="m487.23 424.5c2.64-5.826 4.962-11.717 6.973-17.624l-9.227-29.999c-1.226-3.985-5.319-6.349-9.382-5.419l-4.371 1.001c-4.334 18.376-11.528 36.944-21.943 54.5-.759 1.28-1.544 2.531-2.347 3.76 1.776 1.219 4.03 1.716 6.278 1.201l31.632-7.244c.802-.185 1.605-.236 2.387-.176z" fill="#dd552d"/></g><path d="m278.12 22.281c-16.87-5.858-89.623 73.156-75.56 134.952l33.051 1.712c46.599-20.73 53.701-132.778 42.509-136.664z" fill="#ebe1dc"/><ellipse cx="36.324" cy="401.12" fill="#ebe1dc" rx="28.824" ry="28.824" transform="matrix(.995 -.099 .099 .995 -39.348 5.531)"/><path d="m374.354 65.406c-13.309-15.729-122.291 27.289-146.791 74.22-42.009-1.598-78.408 29.934-82.333 72.3-4.06 43.836 28.184 82.664 72.02 86.725 45.925 4.254 98.759 1.72 112.969-37.77 8.772-24.378-4.273-70.487-40.098-98.366 60.471-21.828 94.199-85.33 84.233-97.109z" fill="#f7f3f1"/><g fill="#ebe1dc"><path d="m319.72 233.289c-8.631 41.072-60.611 50.865-106.684 52.982-17.088.785-33.154-3.889-46.545-12.455 12.857 13.71 30.573 22.966 50.761 24.836 45.925 4.254 98.759 1.72 112.969-37.77 7.87-21.871-1.836-61.224-29.78-89.22 15.876 21.131 22.722 45.243 19.279 61.627z"/><path d="m374.354 65.406c-4.666-5.514-21.092-3.802-41.509 2.76-10.238 24.431-32.645 55.445-66.402 73.221 9.838 5.673 18.422 12.672 25.679 20.376 59.208-22.489 92.087-84.709 82.232-96.357z"/></g><path d="m311.118 346.735c-63.486-9.87-84.303-61.416-84.303-61.416l-61.87-26.321c-173.124 62.973-119.932 231.029-31.716 231.029h169.103c4.852 0 8.785-3.933 8.785-8.785v-11.603c0-23.388-18.96-42.348-42.348-42.348h-27.965c2.227-6.076 3.443-12.639 3.443-19.487 0-11.837-3.638-22.821-9.848-31.907 17.198 4.885 37.97 10.143 54.705 12.444 42.441 5.834 50.63-37.157 22.014-41.606z" fill="#f7f3f1"/><path d="m322.845 352.222c-6.213 5.725-14.168 9.741-22.387 11.944-12.836 3.439-26.367 3.009-39.62 2.04-20.29-1.482-40.492-4.166-60.465-8.033 6.594 18.785 24.418 33.756 43.273 41.396-1.268-8.687-4.503-16.735-9.246-23.673 17.198 4.885 37.971 10.143 54.705 12.444 34.944 4.804 46.663-23.489 33.74-36.118z" fill="#ebe1dc"/><path d="m366.434 98.368c-13.357 22.927-40.016 51.035-76.312 64.146-2.246-1.751-4.58-3.429-7.006-5.025-4.116-2.709-5.553-8.053-3.261-12.414 15.089-28.709 43.129-48.973 86.579-46.707z" fill="#df646e"/><path d="m268.769 427.29h-27.965c2.561-6.986 3.785-14.617 3.361-22.584-1.544-28.992-25.329-52.38-54.341-53.48-7.04-.267-13.804.757-20.082 2.846 24.839 9.886 44.372 43.25 44.372 69.58 0 2.739-.195 5.433-.571 8.068-.863 6.05 3.973 11.419 10.084 11.419h15.008c23.388 0 42.348 18.96 42.348 42.348v4.539h21.348c4.852 0 8.785-3.933 8.785-8.785v-11.603c.002-23.388-18.958-42.348-42.347-42.348z" fill="#ebe1dc"/><g><path d="m511.55 333.22c-.313-4.312-1.469-12.966-1.501-13.135-4.853-30.915-18.493-55.372-37.697-66.777-3.488-2.071-7.335-3.817-11.433-5.191-3.923-1.317-8.179.799-9.495 4.726-1.317 3.928.799 8.179 4.726 9.495 3.093 1.038 5.968 2.34 8.544 3.868 12.15 7.216 21.589 21.549 27.049 40.29l-76.821-44.372c3.404-.804 6.723-1.429 9.926-1.863 4.105-.556 6.983-4.333 6.428-8.438-.555-4.106-4.334-6.977-8.438-6.428-9.276 1.254-18.929 3.765-28.624 7.368-.349.097-26.888 12.116-39.113 20.587-12.552 8.698-24.137 18.934-34.447 30.329-.239.234-17.154 20.995-23.79 32.165-17.906-5.344-33.178-14.784-45.789-28.177-.014-.015-.028-.031-.042-.046 17.58-.273 32.308-2.438 44.713-6.548 21.082-6.985 35.057-19.655 41.534-37.656 5.076-14.107 3.858-33.424-3.343-53-6.297-17.119-16.672-32.951-29.749-45.605.059-.027.115-.057.173-.084 42.603-19.819 71.389-59.624 77.82-83.695 2.425-9.076 1.72-15.966-2.097-20.477-4.255-5.027-11.955-6.845-23.542-5.559-17.946 1.993-44.837 11.55-69.51 24.605 1.968-11.465 3.109-23.065 3.227-33.385.219-19.058-2.766-28.627-9.673-31.027-6.865-2.387-15.793 1.059-27.3 10.528-9.605 7.903-19.872 19.212-28.911 31.841-2.411 3.368-1.635 8.054 1.733 10.464 3.367 2.413 8.054 1.636 10.464-1.733 15.49-21.642 31.091-33.966 37.57-36.383 1.993 8.268 1.796 33.027-4.414 59.682-16.102 10.126-35.719 24.987-46.49 42.484-4.982.072-9.867.588-14.632 1.473 1.06-11.953 4.733-24.793 10.992-38.309 1.74-3.758.104-8.216-3.654-9.957-3.757-1.742-8.216-.104-9.957 3.654-7.955 17.177-12.196 33.605-12.659 48.93-30.058 11.566-52.413 39.367-55.563 73.369-1.52 16.406 1.518 32.489 8.814 47.003-62.485 27.107-91.827 68.235-100.385 107.934-3.188-.898-6.503-1.372-9.873-1.372-20.028 0-36.321 16.293-36.321 36.32 0 20.028 16.293 36.321 36.321 36.321 5.15 0 10.186-1.096 14.801-3.155 5.638 14.879 14.18 28.268 24.957 38.83 16.065 15.742 36.362 24.413 57.152 24.413l169.104.001c8.98 0 16.285-7.306 16.285-16.285 0 0-.024-12.987-.052-13.674 5.637 5.017 11.85 9.58 18.605 13.591 18.203 10.807 38.283 16.383 58.242 16.382 7.649 0 15.281-.819 22.782-2.477 27.654-6.11 51-23.157 65.737-47.998 20.431-34.437 30.367-75.996 27.616-113.847zm-178.047 21.725c-1.086-2.621-2.632-5.089-4.649-7.27l-6.851-22.251c2.556-3.334 5.202-6.528 7.91-9.607l27.48-6.294c.229-.054.468.084.537.313l9.546 31.03c2.369 7.7 10.377 12.319 18.225 10.524l31.63-7.244c.228-.055.471.084.54.313l9.545 31.029c2.368 7.7 10.379 12.325 18.225 10.525l31.633-7.244c.229-.055.468.085.538.313l8.485 27.588c-1.305 3.69-2.719 7.345-4.25 10.947l-30.509 6.993c-.235.054-.464-.084-.536-.315l-9.548-31.023c-2.362-7.702-10.368-12.325-18.226-10.531l-31.628 7.25c-.228.048-.469-.091-.539-.315l-9.545-31.017c-2.356-7.706-10.364-12.333-18.229-10.538zm62.177-86.615 100.088 57.811c.342 2.67.62 5.391.822 8.166 1.075 14.785.038 30.134-2.916 45.317l-1.524-4.956c-2.369-7.699-10.379-12.324-18.224-10.524l-31.633 7.244c-.229.053-.468-.084-.538-.313l-9.546-31.031c-2.368-7.697-10.376-12.321-18.225-10.524l-31.632 7.245c-.23.055-.469-.085-.538-.313l-9.545-31.028c-2.369-7.701-10.378-12.324-18.225-10.526l-3.483.798c14.687-12.226 30.269-21.343 45.119-27.366zm-103.941-114.475c-.141.057-.281.119-.422.176-1.345-.97-2.706-1.909-4.075-2.81-.908-.598-1.229-1.741-.746-2.66 9.798-18.641 29.016-40.085 65.952-42.622-14.994 20.28-36.673 38.216-60.709 47.916zm-255.418 268.584c-11.756 0-21.321-9.565-21.321-21.321s9.565-21.32 21.321-21.32c2.626 0 5.194.479 7.597 1.396-1.032 11.593-.379 22.889 1.648 33.482.326 1.703.7 3.391 1.099 5.071-3.134 1.743-6.685 2.692-10.344 2.692zm267.3 58.802c0 .709-.576 1.285-1.285 1.285h-169.105c-34.424 0-65.097-29.721-72.932-70.669-2.148-11.224-2.538-21.91-1.456-32.04.546-1.288.706-2.668.513-3.995 7.605-51.673 53.834-88.324 100.688-106.937 2.076-.824 3.676-2.531 4.365-4.655.689-2.125.396-4.445-.801-6.332-8.62-13.59-12.392-29.248-10.907-45.282 3.451-37.258 34.719-65.551 71.801-65.551.921 0 1.852.018 2.779.053 2.906.116 5.594-1.457 6.934-4.023 7.268-13.922 24.259-29.366 47.844-43.486 20.676-12.379 44.574-22.627 63.927-27.414 14.261-3.528 20.754-2.701 22.523-1.928.29 1.509.085 6.322-3.767 15.035-.781 1.767-1.668 3.58-2.637 5.421-39.8-.633-71.242 17.287-88.886 50.859-4.089 7.779-1.605 17.31 5.777 22.169 2.213 1.456 4.408 3.03 6.519 4.677 32.228 25.079 45.709 67.514 37.65 89.911-8.789 24.422-36.238 35.62-83.905 34.184-3.726-5.835-5.425-9.861-5.495-10.029-1.556-3.831-5.92-5.682-9.757-4.131-3.841 1.551-5.697 5.922-4.146 9.763 12.225 30.271 46.791 59.29 90.106 66.019 8.76 1.361 11.098 7.191 10.364 12.194-1.765 12.048-16.536 16.444-30.203 14.569-12.956-1.781-30.624-5.765-51.203-11.533-11.708-15.59-30.343-25.693-51.296-25.693-11.979 0-23.665 3.327-33.797 9.621-3.519 2.187-4.599 6.811-2.413 10.329 2.187 3.519 6.811 4.597 10.329 2.413 7.753-4.817 16.702-7.363 25.881-7.363 34.122 0 57.84 34.101 46.133 66.026-.843 2.3-.51 4.867.894 6.876 1.402 2.009 3.698 3.205 6.149 3.205h27.965c19.216 0 34.849 15.633 34.849 34.848v11.604zm-55.157-93.753c12.897 3.335 24.232 5.811 33.888 7.406.627 9.985 2.713 19.708 6.118 28.96-6.046-2.611-12.704-4.065-19.698-4.065h-18.141c2.082-10.997 1.196-22.219-2.167-32.301zm96.368 80.771c-19.983-11.866-34.564-29.15-42.033-48.943l107.365 62.015c-21.924 3.606-44.937-.962-65.332-13.072zm85.296 7.282-132.32-76.429c-.112-.912-.211-1.827-.295-2.745 21.364-.286 34.605-12.49 37.4-26.361.031-.007.063-.01.095-.017l31.624-7.249c.238-.052.468.074.542.314l9.553 31.04c2.378 7.691 10.382 12.305 18.222 10.515l31.626-7.249c.235-.053.469.083.54.314l9.551 31.032c2.026 6.579 8.165 10.91 14.803 10.91 1.132 0 2.277-.126 3.42-.388l18.698-4.286c-.833 1.502-1.68 2.995-2.555 4.469-9.787 16.5-24.005 28.946-40.904 36.13z"/><path d="m257.929 213.667c.931.381 1.893.562 2.839.562 2.954 0 5.755-1.758 6.943-4.66l3.007-7.345c1.569-3.834-.266-8.213-4.099-9.782-3.837-1.57-8.213.267-9.782 4.099l-3.007 7.345c-1.569 3.832.266 8.211 4.099 9.781z"/></g></g></svg>